<svg xmlns="http://www.w3.org/2000/svg" xmlns:xlink="http://www.w3.org/1999/xlink" viewBox="0 0 262.02 149.13"><defs><style>.cls-1{fill:none;}.cls-2{clip-path:url(#clip-path);}.cls-3{fill:url(#未命名的渐变);}.cls-4{clip-path:url(#clip-path-2);}.cls-5{fill:url(#未命名的渐变-2);}.cls-6{clip-path:url(#clip-path-3);}.cls-7{fill:url(#未命名的渐变-3);}.cls-8{clip-path:url(#clip-path-4);}.cls-9{fill:url(#未命名的渐变-4);}.cls-10{clip-path:url(#clip-path-5);}.cls-11{fill:url(#未命名的渐变-5);}.cls-12{fill:#fff;}.cls-13{fill:url(#未命名的渐变-6);}</style><clipPath id="clip-path" transform="translate(0 1.62)"><path class="cls-1" d="M129.22,15.3l14.26-6.68a15.92,15.92,0,0,1,21.3,7.73,15.78,15.78,0,0,1-5.16,19.19A3.57,3.57,0,0,0,158.45,40a1.55,1.55,0,0,0,.12.22l6.59,14.08a15.75,15.75,0,0,1-26.93,16.13,3.57,3.57,0,0,0-4.4-1.17h0a3.32,3.32,0,0,0-.79.26l-14.27,6.68a15.75,15.75,0,0,1-16.13-26.93,3.56,3.56,0,0,0,1.17-4.41,3.34,3.34,0,0,0-.59-.87L96.86,30.38a15.75,15.75,0,0,1,26.92-16.14,3.56,3.56,0,0,0,3.79,1.39h.15a3.52,3.52,0,0,0,1.5-.34M140.43,2.2,127.9,8.07A22.85,22.85,0,0,0,90.44,33.43l5.64,12a22.85,22.85,0,0,0,25.74,37.1l12.46-5.83A22.85,22.85,0,0,0,171.57,51.2l-5.51-11.78A22.79,22.79,0,0,0,150.31,0a23.31,23.31,0,0,0-9.88,2.2"/></clipPath><linearGradient id="未命名的渐变" x1="-88.9" y1="-53.99" x2="-87.9" y2="-53.99" gradientTransform="matrix(85.54, 0, 0, -85.54, 7693.18, -4573.71)" gradientUnits="userSpaceOnUse"><stop offset="0" stop-color="#d69ec5"/><stop offset="1" stop-color="#9bd6eb"/></linearGradient><clipPath id="clip-path-2" transform="translate(0 1.62)"><path class="cls-1" d="M147.52,15.4a6.81,6.81,0,1,0,2.88-.64,6.7,6.7,0,0,0-2.88.64"/></clipPath><linearGradient id="未命名的渐变-2" x1="-88.9" y1="-94.43" x2="-87.9" y2="-94.43" gradientTransform="matrix(13.62, 0, 0, -13.62, 1354.55, -1262.51)" xlink:href="#未命名的渐变"/><clipPath id="clip-path-3" transform="translate(0 1.62)"><path class="cls-1" d="M149.89,57.61a6.78,6.78,0,1,0,2.88-.65,6.71,6.71,0,0,0-2.88.65"/></clipPath><linearGradient id="未命名的渐变-3" x1="-88.9" y1="-94.43" x2="-87.9" y2="-94.43" gradientTransform="matrix(13.62, 0, 0, -13.62, 1356.92, -1220.31)" xlink:href="#未命名的渐变"/><clipPath id="clip-path-4" transform="translate(0 1.62)"><path class="cls-1" d="M108.18,57.61a6.78,6.78,0,1,0,2.88-.65,6.71,6.71,0,0,0-2.88.65"/></clipPath><linearGradient id="未命名的渐变-4" x1="-88.9" y1="-94.43" x2="-87.9" y2="-94.43" gradientTransform="matrix(13.62, 0, 0, -13.62, 1315.21, -1220.31)" xlink:href="#未命名的渐变"/><clipPath id="clip-path-5" transform="translate(0 1.62)"><path class="cls-1" d="M107.11,14.28a6.8,6.8,0,1,0,2.89-.65,6.81,6.81,0,0,0-2.89.65"/></clipPath><linearGradient id="未命名的渐变-5" x1="-88.9" y1="-94.43" x2="-87.9" y2="-94.43" gradientTransform="matrix(13.62, 0, 0, -13.62, 1314.14, -1263.64)" xlink:href="#未命名的渐变"/><linearGradient id="未命名的渐变-6" x1="0" y1="125.89" x2="262.02" y2="125.89" gradientTransform="matrix(1, 0, 0, 1, 0, 0)" xlink:href="#未命名的渐变"/></defs><g id="图层_2" data-name="图层 2"><g id="图层_1-2" data-name="图层 1"><g class="cls-2"><rect class="cls-3" x="85.1" width="91.81" height="89.53"/></g><g class="cls-4"><rect class="cls-5" x="142.64" y="16.37" width="15.52" height="14.57"/></g><g class="cls-6"><rect class="cls-7" x="145.01" y="58.58" width="15.52" height="14.57"/></g><g class="cls-8"><rect class="cls-9" x="103.3" y="58.58" width="15.52" height="14.57"/></g><g class="cls-10"><rect class="cls-11" x="102.24" y="15.25" width="15.52" height="14.57"/></g><polygon class="cls-12" points="0 103.41 0 148.17 8.38 148.17 8.38 148.17 8.38 103.41 0 103.41 0 103.41"/><path class="cls-12" d="M33.39,114.52c-4,0-7.17,1.59-10.36,4.73L22.52,115h-7v31.59h7.73V130.44c0-4.8,3.26-8.83,8.06-8.83,5,0,7.61,3.65,7.61,8.44v16.5h7.8V130C46.75,120.08,40.8,114.52,33.39,114.52Z" transform="translate(0 1.62)"/><path class="cls-12" d="M56,113.37v2.1H50.16v6.84H56v24.24h7.8V122.31h9.27v-6.84H63.84v-2.1c0-3.84,2-5.63,4.73-5.63a8.77,8.77,0,0,1,4.8,1.66l2.87-5.82A15.18,15.18,0,0,0,68.06,101C61.73,101,56,104.93,56,113.37Z" transform="translate(0 1.62)"/><path class="cls-12" d="M104,119.37c-1.79-3.13-5.82-5.11-10-5.11h-.15c-9.14,0-16.28,5.69-16.28,16.5,0,11.06,6.9,16.82,16.24,16.75,3.52-.06,8.44-1.85,10.23-5.56l.38,4.6h7.36V115h-7.49Zm-9.34,21c-5.18,0-9.33-3.58-9.33-9.59s4.15-9.53,9.33-9.53C107,121.23,107,140.35,94.67,140.35Z" transform="translate(0 1.62)"/><path class="cls-12" d="M136,114.52c-4,0-7.16,1.59-10.36,4.73l-.51-4.29h-7v31.59h7.74V130.44c0-4.8,3.26-8.83,8.06-8.83,5,0,7.6,3.65,7.6,8.44v16.5h7.81V130C149.37,120.08,143.42,114.52,136,114.52Z" transform="translate(0 1.62)"/><path class="cls-12" d="M169.78,139.9c-2.43,0-4.09-1.47-4.09-4.48V121.8h8.76v-6.71h-8.69v-9L158,107v8.12h-5.88v6.71H158v13.62c0,7.87,4.48,11.77,11.32,11.52a17.46,17.46,0,0,0,6.46-1.35l-2.17-6.65A8.86,8.86,0,0,1,169.78,139.9Z" transform="translate(0 1.62)"/><path class="cls-12" d="M221.13,101.79l-20.08,44.76h9.15l3.83-8.44h23.41l3.77,8.44h9.21l-20.09-44.76Zm-3.71,28.45,8.31-19.05,8.32,19.05Z" transform="translate(0 1.62)"/><polygon class="cls-12" points="253.64 103.41 253.64 103.41 253.64 148.17 262.02 148.17 262.02 103.41 262.02 103.41 253.64 103.41"/><path class="cls-12" d="M189.18,136.2a5.42,5.42,0,1,0,5.42,5.42A5.41,5.41,0,0,0,189.18,136.2Z" transform="translate(0 1.62)"/><polygon class="cls-13" points="0 103.41 0 148.17 8.38 148.17 8.38 148.17 8.38 103.41 0 103.41 0 103.41"/><path class="cls-13" d="M33.39,114.52c-4,0-7.17,1.59-10.36,4.73L22.52,115h-7v31.59h7.73V130.44c0-4.8,3.26-8.83,8.06-8.83,5,0,7.61,3.65,7.61,8.44v16.5h7.8V130C46.75,120.08,40.8,114.52,33.39,114.52Z" transform="translate(0 1.62)"/><path class="cls-13" d="M56,113.37v2.1H50.16v6.84H56v24.24h7.8V122.31h9.27v-6.84H63.84v-2.1c0-3.84,2-5.63,4.73-5.63a8.77,8.77,0,0,1,4.8,1.66l2.87-5.82A15.18,15.18,0,0,0,68.06,101C61.73,101,56,104.93,56,113.37Z" transform="translate(0 1.62)"/><path class="cls-13" d="M104,119.37c-1.79-3.13-5.82-5.11-10-5.11h-.15c-9.14,0-16.28,5.69-16.28,16.5,0,11.06,6.9,16.82,16.24,16.75,3.52-.06,8.44-1.85,10.23-5.56l.38,4.6h7.36V115h-7.49Zm-9.34,21c-5.18,0-9.33-3.58-9.33-9.59s4.15-9.53,9.33-9.53C107,121.23,107,140.35,94.67,140.35Z" transform="translate(0 1.62)"/><path class="cls-13" d="M136,114.52c-4,0-7.16,1.59-10.36,4.73l-.51-4.29h-7v31.59h7.74V130.44c0-4.8,3.26-8.83,8.06-8.83,5,0,7.6,3.65,7.6,8.44v16.5h7.81V130C149.37,120.08,143.42,114.52,136,114.52Z" transform="translate(0 1.62)"/><path class="cls-13" d="M169.78,139.9c-2.43,0-4.09-1.47-4.09-4.48V121.8h8.76v-6.71h-8.69v-9L158,107v8.12h-5.88v6.71H158v13.62c0,7.87,4.48,11.77,11.32,11.52a17.46,17.46,0,0,0,6.46-1.35l-2.17-6.65A8.86,8.86,0,0,1,169.78,139.9Z" transform="translate(0 1.62)"/><path class="cls-13" d="M221.13,101.79l-20.08,44.76h9.15l3.83-8.44h23.41l3.77,8.44h9.21l-20.09-44.76Zm-3.71,28.45,8.31-19.05,8.32,19.05Z" transform="translate(0 1.62)"/><polygon class="cls-13" points="253.64 103.41 253.64 103.41 253.64 148.17 262.02 148.17 262.02 103.41 262.02 103.41 253.64 103.41"/><path class="cls-13" d="M189.18,136.2a5.42,5.42,0,1,0,5.42,5.42A5.41,5.41,0,0,0,189.18,136.2Z" transform="translate(0 1.62)"/></g></g></svg>
